<svg xmlns="http://www.w3.org/2000/svg" viewBox="0 0 699 130"><path d="M399.5 20.4h4.2v8.1h6.7v-8.1h4.2v19.4c0 .5-.3.8-.8.8h-3.4v-8.7h-6.7v8.7h-4.2V20.4zm76.9 8.2c0-5 3-8.6 8.1-8.6s8.1 3.6 8.1 8.6v3.7c0 5-3 8.6-8.1 8.6s-8.1-3.6-8.1-8.6v-3.7zm11.9 3.4v-3.1c0-2.9-.8-5.5-3.8-5.5s-3.8 2.5-3.8 5.5V32c0 2.9.8 5.5 3.8 5.5 3-.1 3.8-2.6 3.8-5.5zm26.5-4.6c0-4.8 2.9-7.4 7.5-7.4 2 0 3.9.3 5.8.9l-.7 3.3a14 14 0 0 0-4.5-.7c-2.4 0-3.8 1-3.8 4.3v5.4c0 3.3 1.4 4.3 3.8 4.3 1.8 0 2.9-.3 4.5-.7l.7 3.3a19 19 0 0 1-5.8.9c-4.6 0-7.5-2.6-7.5-7.4v-6.2zm49.3-7h4.2v8.1h6.7v-8.1h4.2v19.4c0 .5-.3.8-.8.8H575v-8.7h-6.7v8.7h-4.2V20.4zM430.7 73.8c1.8.6 3.4 1.1 5.2 1.1 2 0 2.8-1 2.8-2.4 0-3.9-8.3-2.5-8.3-9.4 0-3.6 3-5.7 7-5.7 1.9 0 3.3.4 5.2 1.1l-1.1 3.2c-1.6-.5-2.6-.9-4.1-.9-1.7 0-2.6.9-2.6 2.2 0 3.4 8.3 2.5 8.3 9.4 0 3.6-2.9 5.9-7.1 5.9-2.3 0-3.8-.5-6-1.2l.7-3.3zm31.2-9c0-4.8 2.9-7.4 7.5-7.4 2 0 3.9.3 5.8.9l-.7 3.3a14 14 0 0 0-4.5-.7c-2.4 0-3.8 1-3.8 4.3v5.4c0 3.3 1.4 4.3 3.8 4.3 1.8 0 2.9-.3 4.5-.7l.7 3.3a19 19 0 0 1-5.8.9c-4.6 0-7.5-2.6-7.5-7.4v-6.2zm71.9-7h4.2v8.1h6.7v-8.1h4.2v19.4c0 .5-.3.8-.8.8h-3.4v-8.7H538V78h-4.2V57.8zm57 0h4.2v13c0 1.9 1 4 3.6 4s3.6-2.1 3.6-4v-13h4.2v12.5c0 5-2.7 8-7.7 8s-7.8-3-7.8-8l-.1-12.5zm35.3 0h4.2v16.7h8.5v2.7c0 .5-.3.8-.8.8h-12l.1-20.2zm46.1 5.5c0-3.3 2.1-5.5 6.4-5.5h5.6v3.5h-5.5c-1.7 0-2.3.8-2.3 2.4V66h6.9v3.4h-6.9v2.8c0 1.6.5 2.4 2.3 2.4h5.6v2.7c0 .5-.3.8-.8.8h-4.9c-4.2 0-6.4-2.2-6.4-5.5v-9.3zm-268 35.4h-4.7v-3.5H413v3.5h-4.6v16.7h-4.2V98.7zm41.8-2.6c2.2-.7 4.4-1.2 6.5-1.2 4.5 0 7 3.2 7 6.7 0 1.8-1 4.6-3.8 5.9l3.7 7.9h-4.6l-3.2-7.3h-1.5v7.3H446V96.1zm6.2 8.6c1.9 0 2.9-1.2 2.9-3.2 0-1.8-.8-3.2-2.6-3.2-.8 0-1.6.1-2.3.3v6.1h2zm52.5-9.5h4.2v19.4c0 .5-.3.8-.8.8h-3.4V95.2zm16.5 5.6c0-3.3 2.1-5.5 6.4-5.5h5.6v3.5h-5.5c-1.7 0-2.3.8-2.3 2.4v2.3h6.9v3.4h-6.9v2.8c0 1.6.5 2.4 2.3 2.4h5.6v2.7c0 .5-.3.8-.8.8h-4.9c-4.2 0-6.4-2.2-6.4-5.5v-9.3zm45.8-4.7c2.2-.7 4.4-1.2 6.5-1.2 4.5 0 7 3.2 7 6.7 0 1.8-1 4.6-3.8 5.9l3.7 7.9h-4.6l-3.2-7.3h-1.5v7.3H567V96.1zm6.2 8.6c1.9 0 2.9-1.2 2.9-3.2 0-1.8-.8-3.2-2.6-3.2-.8 0-1.6.1-2.3.3v6.1h2zm-203.7 10.7h-1.1v-95h1.1v95zM123.7 58.3h1.3v13.2c0 2.9 1.7 5.7 5.5 5.7s5.6-2.7 5.6-5.7V58.3h1.3V71c0 4.8-2.5 7.4-6.8 7.4s-6.8-2.7-6.8-7.4V58.3h-.1zm20 5.3h.9l.2 1.6c1.2-1 2.8-2 4.3-2 2.1 0 3.5.8 4.2 2.2 1.4-1.2 3.1-2.2 4.8-2.2 3.2 0 4.8 2 4.8 4.8v9.4c0 .3-.2.5-.5.5h-.7v-9.4c0-2.6-.8-4.1-3.6-4.1-1.5 0-3.1 1-4.3 2.1l.2 1.6V78h-1.2v-9.4c0-2.6-.8-4.1-3.6-4.1-1.6 0-3 1-4.1 2V78h-1.2V63.6h-.2zm24 0h1.2l2.5 10.1.6 3 .9-3.1 2.7-8.9h1.6l2.7 8.9.8 3.1.7-3 2.5-10.1h1.2L181.6 78H180l-3.6-12-3.6 12h-1.5l-3.6-14.4zm21.5 5.3c0-3 2-5.6 5.4-5.6s5.5 2.8 5.5 5.6v1.4c0 .3-.2.5-.5.5h-9.2v1.9c0 2 1.2 4.4 4.3 4.4 1.5 0 3-.3 4.5-.8l.3 1.2c-1.6.5-3.1.8-4.7.8-3.5 0-5.5-2.7-5.5-5.6v-3.8h-.1zm9.7.8v-.8c0-2-1.2-4.5-4.2-4.5s-4.2 2.4-4.2 4.5v.8h8.4zm6.9-12.2h1.2v18.4c0 .9.3 1.1.8 1.2l-.2 1.2c-.9-.1-1.8-.3-1.8-2.3V57.5zm7.8 7.2l-2.4-.1v-1h2.4v-4.8h1.2v4.8h3.6v1.1h-3.6V74c0 2.4 1.2 3.1 2.7 3.1l1.8-.2.2 1.2c-.6.2-1.3.2-2 .2-2.2 0-3.9-1.5-3.9-4.1v-9.5zm10.6 4.6h8v1.3h-8v-1.3zm14-4c0-4.7 2.4-7.3 6.9-7.3 1.9 0 3.5.3 5.4.8l-.3 1.2c-1.7-.5-3.3-.8-5.1-.8-4.6 0-5.6 3.2-5.6 6.4v5.1c0 3.2 1 6.4 5.6 6.4 1.7 0 3.5-.3 5.1-.8l.3 1.2c-1.9.5-3.5.8-5.4.8-4.5 0-6.9-2.6-6.9-7.3v-5.7zm25.9 11.2a7.5 7.5 0 0 1-4.7 1.9c-2.9 0-4.5-1.7-4.5-4 0-2.8 2.3-4 6-4h3.1v-1.8c0-2.8-1-4.1-3.9-4.1-1.3 0-2.6.3-3.9.6l-.3-1.2c1.4-.4 2.8-.7 4.2-.7 3.6 0 5.2 2 5.2 4.9V78h-.9l-.3-1.5zm-.1-5h-3.1c-2.9 0-4.8.7-4.8 2.8 0 1.7 1 2.8 3.2 2.8 1.7 0 3.3-.8 4.6-1.9v-3.7h.1zm7.6-7.9h.9l.2 1.6c1.2-1 2.8-2 4.3-2 2.1 0 3.5.8 4.2 2.2 1.4-1.2 3.1-2.2 4.8-2.2 3.2 0 4.8 2 4.8 4.8v9.4c0 .3-.2.5-.5.5h-.7v-9.4c0-2.6-.8-4.1-3.6-4.1-1.5 0-3.1 1-4.3 2.1l.2 1.6V78h-1.2v-9.4c0-2.6-.8-4.1-3.6-4.1-1.6 0-3 1-4.1 2V78h-1.2V63.6h-.2zm25.6 0h.9l.2 1.6c1.6-1.2 3-2 4.7-2 3.2 0 5.2 2.1 5.2 5.6v3.8c0 3.5-1.9 5.6-5.2 5.6-1.6 0-3-.8-4.5-1.9v7.2h-1.2V63.6h-.1zm1.2 11.6c1.5 1 2.8 1.9 4.4 1.9 2.8 0 4-1.7 4-4.9v-2.9c0-3.2-1.2-4.9-4-4.9-1.6 0-3.2 1.1-4.4 2v8.8zm15.4-11c0-.3.2-.5.5-.5h.7v9.4c0 2.6.8 4.1 3.6 4.1 1.6 0 3-.9 4.5-2V63.6h1.2V78h-.9l-.2-1.6c-1.5 1.2-3 2-4.7 2-3.2 0-4.8-2-4.8-4.8l.1-9.4zM330 76.5c1.3.4 2.5.7 3.8.7 2.3 0 3.4-1.1 3.4-2.8 0-3.4-7.1-2.9-7.1-7.3 0-2.4 1.8-3.8 4.5-3.8 1.1 0 2.2.2 3.3.5l-.3 1.1c-1-.3-2-.5-3-.5-2.1 0-3.2 1-3.2 2.6 0 3.2 7.1 2.9 7.1 7.3 0 2.5-1.7 4-4.7 4-1.4 0-2.7-.3-4-.7l.2-1.1zM211.7 96.6c1.8-.7 3.6-1.1 5.4-1.1 3.6 0 5.6 2.3 5.6 5.1 0 1.9-.9 3.5-2.7 4.4a5 5 0 0 1 3.7 5c0 2.9-1.9 5.5-5.9 5.5h-6.1V96.6zm5.4 8c3.1 0 4.3-1.8 4.3-3.9s-1.2-4-4.3-4c-1.4 0-2.8.3-4.2.7v7.2h4.2zm.8 9.7c3.4 0 4.6-2.2 4.6-4.3 0-2.1-1.2-4.3-4.6-4.3h-4.8v8.5h4.8v.1zm10.8-17.2c0-.5.4-.9.9-.9s1 .4 1 .9-.4 1-1 1c-.5 0-.9-.4-.9-1zm.4 4h1.2V115c0 .3-.2.5-.5.5h-.7v-14.4zm7.7 0h.9l.2 2.2c1-1.3 2.5-2.6 4-2.6l1.3.1-.2 1.2-1.1-.1c-1.2 0-2.9 1.4-3.9 2.9v10.6h-1.2v-14.3zM248 95h1.2v12.7l3.7-1c.9-.3 1.4-.9 1.6-1.5l1.6-4.1h1.3l-1.8 4.5c-.4.9-1.1 1.8-2.1 2.2l4.4 7.7h-1.5l-4.1-7.4-3.1.8v6c0 .3-.2.5-.5.5h-.7V95zm13.7 11.4c0-3 2-5.6 5.4-5.6s5.5 2.8 5.5 5.6v1.4c0 .3-.2.5-.5.5h-9.2v1.9c0 2 1.2 4.4 4.3 4.4 1.5 0 3-.3 4.5-.8l.3 1.2c-1.6.5-3.1.8-4.7.8-3.5 0-5.5-2.7-5.5-5.6l-.1-3.8zm9.7.8v-.8c0-2-1.2-4.5-4.2-4.5s-4.2 2.4-4.2 4.5v.8h8.4zm6.9-6.1h.9l.2 1.6c1.5-1.2 3-2 4.7-2 3.2 0 4.8 2 4.8 4.8v9.4c0 .3-.2.5-.5.5h-.7V106c0-2.6-.8-4.1-3.6-4.1-1.6 0-3 .9-4.5 2v11.6h-1.3v-14.4zm17 1.1l-2.4-.1v-1h2.4v-2.4c0-2.6 1.7-4.1 3.9-4.1l2 .2-.2 1.2-1.8-.2c-1.4 0-2.7.7-2.7 3.1v2.2h3.6v1.1h-3.6V115c0 .3-.2.5-.5.5h-.7v-13.3zm8.6 4.2c0-3 2-5.6 5.4-5.6s5.5 2.8 5.5 5.6v1.4c0 .3-.2.5-.5.5h-9.2v1.9c0 2 1.2 4.4 4.3 4.4 1.5 0 3-.3 4.5-.8l.3 1.2c-1.6.5-3.1.8-4.7.8-3.5 0-5.5-2.7-5.5-5.6l-.1-3.8zm9.7.8v-.8c0-2-1.2-4.5-4.2-4.5s-4.2 2.4-4.2 4.5v.8h8.4zm6.8-12.2h1.2v18.4c0 .9.3 1.1.8 1.2l-.2 1.2c-.9-.1-1.8-.3-1.8-2.3V95zm7.1 11.4c0-3.5 1.9-5.6 5.2-5.6 1.6 0 3 .8 4.5 1.9V95h1.2v20.5h-.9l-.2-1.6c-1.6 1.2-3 2-4.7 2-3.2 0-5.2-2.1-5.2-5.6v-3.9h.1zm1.2 3.4c0 3.2 1.2 4.9 4 4.9 1.6 0 3.2-1 4.4-1.9V104c-1.4-1.1-2.9-2-4.4-2-2.8 0-4 1.6-4 4.9v2.9z"/><path d="M68.2 91.9a507 507 0 0 1-63.9-45l3.2 33.9 62.8 34.3c-2-7.4-2.7-15.3-2.1-23.2M52.3 20.3L41.7 45a245.7 245.7 0 0 0 27.9 37c1.3-6 3.3-11.9 5.9-17.5a216.6 216.6 0 0 1-23.2-44.2m41.9 1.1l-16.1 7.7c.3 8.9 1.7 17.2 3.5 24.7 3-4.6 6.6-9.1 10.6-13.2-.1-5.8.4-12.3 2-19.2" fill="#3eae2c"/><path d="M70.9 114.1c-.2-6.6.7-13 2.6-19l-5.2-3.2c-.6 7.9.1 15.8 2 23.2l.7.4-.1-1.4m5-25.7c2-4.7 4.7-9.1 7.8-13.2-2.9-3.3-5.6-6.9-8.2-10.7A83.9 83.9 0 0 0 69.6 82l6.3 6.4m19.5-25.2a87 87 0 0 1-3.3-22.6c-4 4.2-7.5 8.6-10.6 13.2 1.7 6.6 3.7 12.5 5.6 17.3 2.6-2.8 5.3-5.5 8.3-7.9m5.4-4c2.9-2 6-3.8 9.2-5.4a49.7 49.7 0 0 1 13.6-27.3L109.7 28a75.8 75.8 0 0 0-8.9 31.2" fill="#000c8b"/></svg>